<svg width="770" height="697" viewBox="0 0 770 697" fill="none" xmlns="http://www.w3.org/2000/svg">
<g style="mix-blend-mode:multiply" opacity="0.1">
<path d="M393.021 284.387L289.281 224.486C288.029 223.762 285.993 223.762 284.741 224.486L209.081 268.16C207.83 268.884 207.83 270.06 209.081 270.784L312.822 330.684C314.073 331.408 316.109 331.408 317.361 330.684L393.021 286.996C394.272 286.287 394.272 285.111 393.021 284.387Z" fill="#39444F"/>
<path d="M518.97 640.982L617.507 584.098L327.687 416.763L229.149 473.662L518.97 640.982Z" fill="#39444F"/>
<path d="M696.248 560.294C718.014 572.862 718.014 593.241 696.248 605.829C674.462 618.397 639.156 618.397 617.389 605.829C595.623 593.261 595.623 572.882 617.389 560.294C639.175 547.726 674.481 547.726 696.248 560.294Z" fill="#39444F"/>
</g>
<path d="M335.71 301.227L401.904 263.019V55.542L335.71 93.7651V301.227Z" fill="#39444F"/>
<path d="M335.71 93.7651L241.135 39.165V246.627L335.71 301.227V93.7651Z" fill="#596E81"/>
<path d="M241.135 39.1635L335.71 93.7635L401.904 55.5405L307.329 0.94043L241.135 39.1635Z" fill="#6B8191"/>
<path d="M326.249 228.224L250.595 184.547V237.121L248.859 238.126L324.513 281.818L326.249 280.813V228.224Z" fill="#39444F"/>
<path d="M324.513 229.228L248.859 185.551V238.125L324.513 281.817V229.228Z" fill="#6B8191"/>
<g opacity="0.05">
<path opacity="0.05" d="M324.513 229.228L248.859 185.551V238.125L324.513 281.817V229.228Z" fill="black"/>
</g>
<path d="M294.851 221.018L281.993 213.583C280.317 212.624 278.961 213.065 278.961 214.574C278.961 216.082 280.317 218.093 281.993 219.053L294.866 226.487C296.542 227.447 297.883 227.005 297.883 225.497C297.883 223.989 296.527 221.978 294.851 221.018Z" fill="#39444F"/>
<path d="M326.25 164.742L250.596 121.05V173.639L248.859 174.644L324.513 218.321L326.25 217.316V164.742Z" fill="#39444F"/>
<path d="M324.513 165.748L248.859 122.056V174.645L324.513 218.322V165.748Z" fill="#6B8191"/>
<g opacity="0.05">
<path opacity="0.05" d="M324.513 165.748L248.859 122.056V174.645L324.513 218.322V165.748Z" fill="black"/>
</g>
<path d="M294.851 157.536L281.993 150.102C280.318 149.142 278.962 149.584 278.962 151.092C278.962 152.6 280.318 154.611 281.993 155.571L294.866 163.006C296.542 163.965 297.883 163.523 297.883 162.015C297.883 160.492 296.527 158.496 294.851 157.536Z" fill="#39444F"/>
<path d="M326.249 101.244L250.595 57.5674V110.141L326.249 153.818V101.244Z" fill="#39444F"/>
<path d="M212.767 88.2969L254.737 64.0742L254.753 110.402L212.767 134.625V88.2969Z" fill="#596E81"/>
<g opacity="0.1">
<path opacity="0.1" d="M212.767 88.2969L254.737 64.0742L254.753 110.402L212.767 134.625V88.2969Z" fill="black"/>
</g>
<path d="M251.812 62.3818L254.752 64.0728L212.766 88.2955L209.826 86.6045L251.812 62.3818Z" fill="#6B8191"/>
<path d="M239.991 67.485C239.991 67.0279 240.144 66.708 240.403 66.5557C240.403 66.5557 240.433 66.5252 240.509 66.4947L242.642 65.2455C242.916 65.0932 243.282 65.1236 243.678 65.3521L286.441 90.0014L287.69 84.974C287.797 84.5932 288.025 84.319 288.315 84.1514H288.299L290.524 82.8717V82.8869C290.905 82.6584 291.407 82.6432 291.88 82.9174L310.069 93.4139C310.892 93.8861 311.547 95.0287 311.547 95.9733V156.637C311.547 157.094 311.395 157.414 311.151 157.566L308.866 158.891C308.607 159.028 308.257 158.998 307.86 158.769L241.454 120.424C240.631 119.952 239.976 118.81 239.976 117.865L239.991 67.485Z" fill="#64B82A"/>
<path d="M239.991 67.4995L239.96 117.88C239.96 118.824 240.615 119.967 241.438 120.439L308.012 158.875C308.591 159.21 309.323 158.784 309.323 158.114V97.2675C309.323 96.7952 309.155 96.2772 308.896 95.8202C308.622 95.3632 308.256 94.9518 307.86 94.7233L289.67 84.2268C289.213 83.9679 288.726 83.9526 288.345 84.1659L288.299 84.1811H288.314C288.04 84.3487 287.812 84.6229 287.69 85.0038L286.44 90.0159L286.242 90.5643C285.968 91.4784 285.085 91.8136 284.277 91.3565L241.469 66.6616C241.103 66.4483 240.753 66.4026 240.509 66.5245L240.448 66.555C240.433 66.555 240.433 66.5702 240.417 66.5702L240.402 66.5854C240.143 66.7225 239.991 67.0425 239.991 67.4995Z" fill="#64B82A"/>
<path opacity="0.15" d="M239.991 67.4995L239.96 117.88C239.96 118.824 240.615 119.967 241.438 120.439L308.012 158.875C308.591 159.21 309.323 158.784 309.323 158.114V97.2675C309.323 96.7952 309.155 96.2772 308.896 95.8202C308.622 95.3632 308.256 94.9518 307.86 94.7233L289.67 84.2268C289.213 83.9679 288.726 83.9526 288.345 84.1659L288.299 84.1811H288.314C288.04 84.3487 287.812 84.6229 287.69 85.0038L286.44 90.0159L286.242 90.5643C285.968 91.4784 285.085 91.8136 284.277 91.3565L241.469 66.6616C241.103 66.4483 240.753 66.4026 240.509 66.5245L240.448 66.555C240.433 66.555 240.433 66.5702 240.417 66.5702L240.402 66.5854C240.143 66.7225 239.991 67.0425 239.991 67.4995Z" fill="black"/>
<path opacity="0.35" d="M308.79 158.921C308.805 158.921 308.835 158.906 308.85 158.906L311.136 157.58C311.379 157.413 311.532 157.093 311.532 156.636V95.9727C311.532 95.5004 311.364 94.9824 311.09 94.5254L308.881 95.8203C309.155 96.2773 309.307 96.8105 309.307 97.2676V158.114C309.323 158.495 309.094 158.799 308.79 158.921Z" fill="black"/>
<path d="M232.862 71.6451C232.862 71.1881 233.014 70.8682 233.273 70.7158C233.273 70.7158 233.304 70.6854 233.38 70.6549L235.513 69.4057C235.787 69.2533 236.152 69.2838 236.549 69.5123L279.311 94.1615L280.561 89.1342C280.667 88.7533 280.896 88.4791 281.185 88.3115H281.17L283.394 87.0166V87.0318C283.775 86.8033 284.278 86.7881 284.75 87.0623L302.94 97.5588C303.763 98.0311 304.418 99.1736 304.418 100.118V160.781C304.418 161.239 304.265 161.558 304.022 161.711L301.736 163.036C301.477 163.173 301.127 163.143 300.731 162.914L234.324 124.569C233.502 124.097 232.847 122.955 232.847 122.01L232.862 71.6451Z" fill="#64B82A"/>
<path opacity="0.15" d="M281.2 88.2952C281.581 88.0819 282.054 88.0972 282.526 88.3562L300.716 98.8526C301.112 99.0964 301.493 99.4925 301.767 99.9647L303.976 98.6698C303.717 98.2128 303.336 97.8015 302.925 97.5577L284.735 87.0612C284.263 86.787 283.76 86.8022 283.379 87.0308L281.2 88.2952Z" fill="white"/>
<path opacity="0.15" d="M233.364 70.6537C233.623 70.5471 233.958 70.5928 234.339 70.7908L277.132 95.4858C277.955 95.958 278.839 95.6076 279.113 94.6936L279.311 94.1604L236.563 69.4959C236.335 69.3588 236.106 69.2979 235.908 69.2979C235.771 69.2979 235.634 69.3283 235.527 69.3893L233.364 70.6537Z" fill="white"/>
<path d="M232.862 71.6444L232.831 122.025C232.831 122.969 233.486 124.112 234.309 124.584L300.883 163.02C301.462 163.355 302.193 162.929 302.193 162.259V101.428C302.193 100.955 302.026 100.437 301.767 99.9804C301.493 99.5233 301.127 99.112 300.716 98.8835L282.526 88.387C282.069 88.128 281.581 88.1128 281.2 88.3261L281.155 88.3413H281.17C280.896 88.5089 280.667 88.7831 280.545 89.1639L279.296 94.1761L279.098 94.7245C278.824 95.6386 277.94 95.9737 277.133 95.5167L234.324 70.8218C233.959 70.6085 233.608 70.5628 233.364 70.6846L233.303 70.7151C233.288 70.7151 233.288 70.7303 233.273 70.7303L233.258 70.7456C233.014 70.8675 232.862 71.2026 232.862 71.6444Z" fill="#64B82A"/>
<path opacity="0.2" d="M301.661 163.082C301.676 163.082 301.706 163.067 301.722 163.067L304.007 161.742C304.251 161.574 304.403 161.254 304.403 160.797V100.134C304.403 99.6615 304.235 99.1436 303.961 98.6865L301.752 99.9814C302.026 100.438 302.179 100.972 302.179 101.429V162.275C302.194 162.656 301.965 162.96 301.661 163.082Z" fill="black"/>
<path d="M225.732 75.8082C225.732 75.3512 225.885 75.0312 226.144 74.8789C226.144 74.8789 226.174 74.8484 226.25 74.818L228.383 73.5687C228.657 73.4164 229.023 73.4469 229.419 73.6754L272.182 98.3246L273.431 93.2973C273.538 92.9164 273.766 92.6422 274.056 92.4746H274.041L276.265 91.1797V91.1949C276.646 90.9664 277.148 90.9512 277.621 91.2254L295.811 101.722C296.633 102.194 297.288 103.337 297.288 104.281V164.945C297.288 165.402 297.136 165.722 296.892 165.874L294.607 167.199C294.348 167.336 293.998 167.306 293.602 167.077L227.195 128.732C226.372 128.26 225.717 127.118 225.717 126.173L225.732 75.8082Z" fill="#64B82A"/>
<path opacity="0.3" d="M274.087 92.4554C274.467 92.2421 274.94 92.2573 275.412 92.5163L293.587 103.013C293.983 103.257 294.364 103.653 294.638 104.125L296.847 102.83C296.588 102.373 296.207 101.962 295.796 101.718L277.606 91.2214C277.133 90.9472 276.631 90.9624 276.25 91.1909L274.087 92.4554Z" fill="white"/>
<path opacity="0.3" d="M226.25 74.7992C226.509 74.6926 226.844 74.7383 227.225 74.9363L270.018 99.6313C270.841 100.104 271.725 99.7531 271.999 98.8391L272.197 98.3059L229.434 73.6414C229.205 73.5043 228.977 73.4434 228.779 73.4434C228.642 73.4434 228.505 73.4738 228.398 73.5348L226.25 74.7992Z" fill="white"/>
<path d="M225.733 75.8042L225.702 126.184C225.702 127.129 226.357 128.271 227.18 128.744L293.754 167.18C294.333 167.515 295.064 167.104 295.064 166.418V105.572C295.064 105.1 294.897 104.582 294.638 104.125C294.364 103.668 293.998 103.257 293.602 103.028L275.412 92.5315C274.955 92.2725 274.468 92.2573 274.087 92.4706L274.041 92.4858H274.056C273.782 92.6534 273.553 92.9276 273.432 93.3085L272.182 98.3206L271.984 98.869C271.71 99.7831 270.827 100.118 270.019 99.6612L227.211 74.9663C226.845 74.753 226.494 74.7073 226.251 74.8292L226.19 74.8596C226.175 74.8596 226.175 74.8749 226.159 74.8749L226.144 74.8901C225.9 75.0272 225.733 75.3471 225.733 75.8042Z" fill="#64B82A"/>
<path opacity="0.15" d="M225.733 75.8042L225.702 126.184C225.702 127.129 226.357 128.271 227.18 128.744L293.754 167.18C294.333 167.515 295.064 167.104 295.064 166.418V105.572C295.064 105.1 294.897 104.582 294.638 104.125C294.364 103.668 293.998 103.257 293.602 103.028L275.412 92.5315C274.955 92.2725 274.468 92.2573 274.087 92.4706L274.041 92.4858H274.056C273.782 92.6534 273.553 92.9276 273.432 93.3085L272.182 98.3206L271.984 98.869C271.71 99.7831 270.827 100.118 270.019 99.6612L227.211 74.9663C226.845 74.753 226.494 74.7073 226.251 74.8292L226.19 74.8596C226.175 74.8596 226.175 74.8749 226.159 74.8749L226.144 74.8901C225.9 75.0272 225.733 75.3471 225.733 75.8042Z" fill="white"/>
<path opacity="0.05" d="M294.53 167.227C294.545 167.227 294.576 167.212 294.591 167.212L296.876 165.886C297.12 165.719 297.272 165.399 297.272 164.942V104.278C297.272 103.806 297.105 103.288 296.83 102.831L294.621 104.126C294.896 104.583 295.048 105.116 295.048 105.573V166.419C295.063 166.8 294.835 167.105 294.53 167.227Z" fill="black"/>
<path d="M218.602 79.9635C218.602 79.5064 218.754 79.1865 219.013 79.0342C219.013 79.0342 219.044 79.0037 219.12 78.9732L221.253 77.724C221.527 77.5717 221.892 77.6021 222.289 77.8307L265.051 102.48L266.301 97.4525C266.407 97.0717 266.636 96.7975 266.925 96.6299H266.91L269.134 95.335V95.3502C269.515 95.1217 270.018 95.1065 270.49 95.3807L288.68 105.877C289.503 106.349 290.158 107.492 290.158 108.437V169.1C290.158 169.557 290.005 169.877 289.762 170.029L287.476 171.355C287.217 171.492 286.867 171.461 286.471 171.233L220.064 132.888C219.242 132.415 218.587 131.273 218.587 130.328L218.602 79.9635Z" fill="#64B82A"/>
<path opacity="0.5" d="M266.957 96.6126C267.337 96.3993 267.81 96.4145 268.282 96.6735L286.472 107.17C286.868 107.414 287.249 107.81 287.523 108.282L289.732 106.987C289.473 106.53 289.092 106.119 288.681 105.875L270.491 95.3786C270.019 95.1044 269.516 95.1196 269.135 95.3481L266.957 96.6126Z" fill="white"/>
<path opacity="0.5" d="M219.12 78.9564C219.379 78.8498 219.714 78.8955 220.095 79.0936L262.888 103.788C263.711 104.261 264.595 103.91 264.869 102.996L265.067 102.463L222.304 77.7986C222.075 77.6615 221.847 77.6006 221.649 77.6006C221.512 77.6006 221.375 77.6311 221.268 77.692L219.12 78.9564Z" fill="white"/>
<path d="M218.602 79.9615L218.571 130.342C218.571 131.286 219.226 132.429 220.049 132.901L286.623 171.337C287.202 171.672 287.933 171.261 287.933 170.576V109.729C287.933 109.257 287.766 108.739 287.507 108.282C287.233 107.825 286.867 107.414 286.456 107.185L268.266 96.6889C267.809 96.4299 267.321 96.4146 266.94 96.6279L266.91 96.6432H266.925C266.651 96.8107 266.422 97.085 266.301 97.4658L265.051 102.478L264.853 103.026C264.579 103.94 263.695 104.276 262.888 103.819L220.079 79.1236C219.714 78.9103 219.363 78.8799 219.12 78.9865L219.059 79.017C219.043 79.017 219.044 79.0322 219.028 79.0322L219.013 79.0474C218.769 79.1846 218.602 79.5045 218.602 79.9615Z" fill="#64B82A"/>
<path opacity="0.3" d="M218.602 79.9615L218.571 130.342C218.571 131.286 219.226 132.429 220.049 132.901L286.623 171.337C287.202 171.672 287.933 171.261 287.933 170.576V109.729C287.933 109.257 287.766 108.739 287.507 108.282C287.233 107.825 286.867 107.414 286.456 107.185L268.266 96.6889C267.809 96.4299 267.321 96.4146 266.94 96.6279L266.91 96.6432H266.925C266.651 96.8107 266.422 97.085 266.301 97.4658L265.051 102.478L264.853 103.026C264.579 103.94 263.695 104.276 262.888 103.819L220.079 79.1236C219.714 78.9103 219.363 78.8799 219.12 78.9865L219.059 79.017C219.043 79.017 219.044 79.0322 219.028 79.0322L219.013 79.0474C218.769 79.1846 218.602 79.5045 218.602 79.9615Z" fill="white"/>
<path d="M282.541 128.577L324.511 104.354V150.682L282.541 174.905V128.577Z" fill="#596E81"/>
<path d="M321.571 102.662L324.511 104.353L282.541 128.576L279.6 126.885L321.571 102.662Z" fill="#6B8191"/>
<path d="M283.379 125.987L207.725 82.3096V134.899L283.379 178.576V125.987Z" fill="#6B8191"/>
<path d="M253.733 117.775L240.875 110.34C239.199 109.381 237.859 109.822 237.859 111.331C237.859 112.839 239.215 114.85 240.89 115.809L253.763 123.244C255.439 124.204 256.78 123.762 256.78 122.254C256.78 120.745 255.393 118.75 253.733 117.775Z" fill="#39444F"/>
<path d="M283.38 125.987L285.908 124.54V177.114L283.38 178.576V125.987Z" fill="#39444F"/>
<path d="M285.908 124.539L210.255 80.8623L207.726 82.3096L283.38 125.987L285.908 124.539Z" fill="#596E81"/>
<path d="M423.825 19.3043C423.844 19.0643 423.862 18.8612 423.936 18.6581C423.918 18.6027 423.936 18.5658 423.955 18.5104C423.973 18.2704 424.047 18.0673 424.121 17.8826C424.213 17.5503 424.361 17.2549 424.545 16.978C424.601 16.8303 424.693 16.7195 424.785 16.6087C424.859 16.5164 424.896 16.4241 424.989 16.3502C425.136 16.1656 425.265 16.0179 425.45 15.8887C425.45 15.8887 425.469 15.8702 425.505 15.8333C425.69 15.6856 425.893 15.5748 426.115 15.4825C427.389 14.8732 429.032 15.0394 430.86 16.0917L753.11 202.16C757.006 204.413 760.163 209.896 760.163 214.383V506.483C760.163 506.502 760.163 506.52 760.163 506.539V508.09C760.163 510.01 759.092 511.561 757.634 512.354C757.541 512.428 757.43 512.465 757.32 512.521C757.209 512.594 757.08 512.668 756.95 512.724C756.766 512.816 756.563 512.89 756.341 512.927C756.046 513.001 755.732 513.038 755.436 513.038C754.716 513.056 753.904 512.834 753.092 512.373L752.907 512.262H752.889L746.168 508.385L430.823 326.212C426.927 323.96 423.77 318.513 423.77 313.99V20.172C423.77 19.8766 423.788 19.5812 423.825 19.3043Z" fill="#FAFAFA"/>
<path d="M427.703 16.8645C427.37 16.8645 427.075 16.9199 426.779 17.0676C426.706 17.1045 426.632 17.1414 426.576 17.1784C426.539 17.2153 426.503 17.2338 426.466 17.2707C426.41 17.3076 426.392 17.3445 426.336 17.3999C426.299 17.4553 426.244 17.5107 426.189 17.5661C426.17 17.603 426.152 17.6215 426.133 17.6399C426.133 17.6584 426.096 17.6769 426.078 17.7138C426.041 17.7876 426.004 17.88 425.949 17.9538C425.856 18.0831 425.801 18.2308 425.746 18.3785C425.727 18.4154 425.727 18.4708 425.709 18.5077C425.653 18.6369 425.653 18.6739 425.653 18.6923C425.653 18.7846 425.635 18.8585 425.616 18.9508C425.598 19.0431 425.579 19.117 425.561 19.2093C425.542 19.3016 425.542 19.3939 425.524 19.4678C425.506 19.7078 425.487 19.9478 425.487 20.2063V314.024C425.487 317.901 428.33 322.812 431.691 324.769L747.036 506.942L753.701 510.801C753.719 510.819 753.738 510.819 753.775 510.838L753.959 510.949C754.458 511.244 754.956 511.392 755.344 511.392H755.436C755.584 511.392 755.75 511.373 755.972 511.318C756.046 511.299 756.138 511.281 756.175 511.244C756.267 511.207 756.323 511.152 756.415 511.115C756.507 511.059 756.6 511.004 756.692 510.967C756.729 510.93 756.784 510.912 756.821 510.893C757.855 510.339 758.464 509.305 758.464 508.142V506.536V214.435C758.464 210.558 755.621 205.647 752.261 203.69L429.992 17.5846C429.143 17.123 428.367 16.8645 427.703 16.8645ZM427.703 15.1475C428.644 15.1475 429.697 15.4613 430.841 16.1075L753.11 202.158C757.006 204.41 760.163 209.894 760.163 214.38V506.481C760.163 506.499 760.163 506.518 760.163 506.536V508.087C760.163 510.007 759.092 511.558 757.634 512.352C757.541 512.426 757.43 512.463 757.32 512.518C757.209 512.592 757.08 512.666 756.95 512.721C756.766 512.813 756.563 512.887 756.341 512.924C756.046 512.998 755.732 513.035 755.436 513.035C755.4 513.035 755.363 513.035 755.344 513.035C754.643 513.035 753.886 512.813 753.11 512.37L752.926 512.259H752.907L746.187 508.382L430.841 326.209C426.946 323.957 423.788 318.51 423.788 313.987V20.1694C423.788 19.8739 423.807 19.5601 423.844 19.2831C423.862 19.0431 423.881 18.84 423.955 18.6369C423.936 18.5815 423.955 18.5446 423.973 18.4892C423.992 18.2492 424.065 18.0461 424.139 17.8615C424.232 17.5292 424.379 17.2338 424.564 16.9568C424.619 16.8091 424.712 16.6983 424.804 16.5876C424.878 16.4952 424.915 16.4029 425.007 16.3291C425.155 16.1445 425.284 15.9968 425.469 15.8675C425.469 15.8675 425.487 15.849 425.524 15.8121C425.709 15.6644 425.912 15.5536 426.133 15.4613C426.576 15.2767 427.112 15.1475 427.703 15.1475Z" fill="#E0E0E0"/>
<path d="M757.633 512.355L758.003 512.152L765.443 507.85C767.437 506.705 768.785 504.675 769.117 502.385C769.173 502.053 769.21 501.72 769.21 501.351V213.393L760.181 218.673V508.072C760.181 508.182 760.181 508.33 760.181 508.33C760.07 510.177 759.037 511.598 757.689 512.318C757.652 512.337 757.633 512.355 757.633 512.355Z" fill="#E0E0E0"/>
<path d="M426.101 5.58181C427.375 4.97254 429.018 5.1387 430.846 6.19109L753.115 192.241C757.011 194.494 760.168 199.977 760.168 204.464V218.144L769.178 212.864V199.349C769.178 194.863 766.039 189.398 762.143 187.145L439.837 1.09534C437.825 -0.086279 436.016 -0.104742 434.723 0.670697C433.449 1.44614 427.597 4.78791 426.101 5.58181Z" fill="#F5F5F5"/>
<path d="M423.787 10.215C423.806 5.76545 426.963 3.95609 430.84 6.1901L753.109 192.259C757.005 194.511 760.162 199.976 760.162 204.481V218.18L423.787 23.9883V10.215Z" fill="#EBEBEB"/>
<path opacity="0.15" d="M769.191 212.901V199.35C769.191 197.06 768.36 194.531 767.049 192.297L758.076 197.466C759.387 199.682 760.181 202.193 760.181 204.482L760.199 218.163L769.191 212.901Z" fill="black"/>
<rect width="384.552" height="10.0318" transform="matrix(0.866009 0.500028 3.18867e-05 1 425.05 48.4512)" fill="#F1F1F1"/>
<rect width="66.8786" height="10.0318" transform="matrix(0.866009 0.500028 3.18867e-05 1 425.05 48.4512)" fill="#CEE57C"/>
<rect width="66.8786" height="10.0318" transform="matrix(0.866009 0.500028 3.18867e-05 1 482.969 81.8867)" fill="#E6BA4D"/>
<rect width="384.552" height="23.4075" transform="matrix(0.866009 0.500028 3.18867e-05 1 425.049 25.041)" fill="white"/>
<path fill-rule="evenodd" clip-rule="evenodd" d="M433.893 35.4439C434.258 35.9141 434.722 36.2421 435.148 36.2833C435.574 36.3245 435.864 36.0695 435.962 35.644C436.9 35.939 437.893 36.5007 438.871 37.3233C438.968 37.862 439.259 38.4528 439.685 38.9039C440.111 39.355 440.576 39.5629 440.941 39.5137C441.794 40.6302 442.491 41.862 443.003 43.1108C442.774 43.3976 442.717 43.9001 442.89 44.4939C443.063 45.0878 443.426 45.6368 443.842 45.9951C444.037 47.1436 444.045 48.2395 443.843 49.2001C443.426 49.0775 443.063 49.2074 442.89 49.6017C442.718 49.9959 442.774 50.5641 443.003 51.1148C442.471 51.8 441.76 52.2029 440.941 52.3295C440.576 51.8595 440.111 51.5316 439.686 51.4904C439.26 51.4492 438.97 51.7042 438.872 52.1296C437.933 51.8345 436.94 51.2726 435.962 50.4498C435.864 49.9116 435.574 49.3217 435.148 48.8712C434.722 48.4206 434.258 48.2127 433.893 48.2613C433.04 47.1446 432.342 45.9125 431.831 44.6634C432.059 44.3765 432.116 43.8742 431.943 43.2808C431.77 42.6872 431.407 42.1383 430.991 41.78C430.796 40.6313 430.788 39.5353 430.99 38.5745C431.407 38.6972 431.77 38.5674 431.943 38.173C432.116 37.7786 432.059 37.2101 431.83 36.659C432.362 35.9736 433.073 35.5706 433.893 35.4439ZM437.417 49.2001C439.958 50.6674 442.018 49.478 442.018 46.5436C442.018 43.6092 439.958 40.041 437.416 38.5737C434.875 37.1064 432.815 38.2957 432.815 41.2301C432.815 44.1645 434.876 47.7328 437.417 49.2001ZM436.003 47.3235L436.003 44.5786L438.764 46.1727L438.764 48.9462C440.279 49.1851 441.361 48.1328 441.361 46.1639C441.361 43.6487 439.595 40.5902 437.416 39.3325C435.238 38.0749 433.473 39.0943 433.473 41.6095C433.473 43.5495 434.523 45.8126 436.003 47.3235ZM438.764 43.7957C438.764 42.9154 438.146 41.8449 437.383 41.4047C436.621 40.9646 436.003 41.3214 436.003 42.2017C436.003 43.082 436.621 44.1525 437.383 44.5927C438.146 45.0329 438.764 44.6761 438.764 43.7957Z" fill="#39444F"/>
<path fill-rule="evenodd" clip-rule="evenodd" d="M459.319 52.2116C459.319 52.7566 458.937 52.9775 458.465 52.705C457.993 52.4325 457.61 51.7698 457.61 51.2248C457.61 50.6799 457.993 50.459 458.465 50.7315C458.937 51.004 459.319 51.6667 459.319 52.2116ZM457.611 58.4323L457.61 52.6959L459.319 53.6827L459.32 59.4191L457.611 58.4323ZM462.367 59.3038C462.381 60.7125 463.308 61.9144 464.557 62.6353C465.918 63.4214 466.751 63.2979 466.751 61.9229C466.751 61.2183 466.495 60.5784 465.983 60.0033C465.634 59.6113 465.244 59.3092 464.862 59.0133C464.785 58.9538 464.709 58.8946 464.633 58.835L464.589 58.7981C464.384 58.6278 464.077 58.3725 464.077 58.0785C464.077 57.9472 464.118 57.8678 464.202 57.8402C464.391 57.7779 464.734 57.9915 464.916 58.2728C465.008 58.4162 465.055 58.5776 465.055 58.7572L466.657 59.6821C466.648 59.0932 466.452 58.5121 466.069 57.9387C465.689 57.3636 465.185 56.8946 464.557 56.532C463.558 55.9556 462.434 55.8774 462.434 57.1977C462.434 57.527 462.495 57.895 462.65 58.265C462.784 58.5682 462.984 58.8563 463.193 59.1017C463.514 59.4723 463.873 59.7614 464.225 60.0292C464.515 60.252 464.729 60.4394 464.866 60.5913C465.108 60.8496 465.152 61.233 464.934 61.2882C464.719 61.3401 464.375 61.1163 464.175 60.8089C464.068 60.6397 464.014 60.4549 464.014 60.2546L462.367 59.3038ZM467.438 61.6459C467.438 63.2648 468.533 64.9262 469.888 65.708C471.242 66.4902 472.328 66.0865 472.328 64.4698L472.328 61.2005L470.619 60.2134L470.619 63.4757C470.619 63.9209 470.369 64.2141 469.887 63.936C469.406 63.6581 469.147 63.0738 469.147 62.626L469.147 59.3637L467.437 58.3766L467.438 61.6459ZM461.765 60.0281C461.765 60.5775 461.379 60.8002 460.904 60.5255C460.428 60.2508 460.042 59.5827 460.042 59.0333C460.042 58.4839 460.428 58.2612 460.904 58.5359C461.379 58.8106 461.765 59.4787 461.765 60.0281ZM455.584 51.5266L455.584 49.6958L454.968 49.3405L452.952 50.7133L452.952 51.5481L453.875 52.0812L453.875 53.9469L453.875 53.947C453.85 54.6724 453.955 55.388 454.405 56.1097C454.833 56.797 455.22 57.0559 456.08 57.5531L456.08 57.5532L456.814 57.9767L456.814 56.2445L456.086 55.8244L456.086 55.8244C455.816 55.6683 455.579 55.2329 455.584 54.9316L455.584 54.9315L455.584 53.0676L456.785 53.7608L456.785 52.22L455.584 51.5266ZM450.834 54.1091C450.409 54.2388 449.882 54.1568 449.312 53.8277C447.898 53.0114 446.752 50.9842 446.752 49.2998C446.752 47.6154 447.898 46.9116 449.312 47.7278C449.893 48.0633 450.429 48.6033 450.858 49.24L451 48.8819L452.319 49.6432L452.319 55.3745L450.961 54.5903L450.834 54.1091ZM450.701 51.5772C450.701 52.3042 450.203 52.6057 449.588 52.2507C448.973 51.8957 448.475 51.0185 448.475 50.2916C448.475 49.5646 448.973 49.2631 449.588 49.6181C450.203 49.9731 450.701 50.8503 450.701 51.5772Z" fill="#39444F"/>
<rect width="25.0795" height="6.68786" rx="3.34393" transform="matrix(0.866009 0.500028 3.18867e-05 1 482.967 66.8457)" fill="#DDDFE1"/>
<rect width="25.0795" height="6.68786" rx="3.34393" transform="matrix(0.866009 0.500028 3.18867e-05 1 591.56 129.542)" fill="#DDDFE1"/>
<rect width="25.0795" height="6.68786" rx="3.34393" transform="matrix(0.866009 0.500028 3.18867e-05 1 519.166 87.7422)" fill="#DDDFE1"/>
<rect width="25.0795" height="6.68786" rx="3.34393" transform="matrix(0.866009 0.500028 3.18867e-05 1 627.76 150.443)" fill="#DDDFE1"/>
<rect width="25.0795" height="6.68786" rx="3.34393" transform="matrix(0.866009 0.500028 3.18867e-05 1 555.363 108.641)" fill="#DDDFE1"/>
<g opacity="0.15">
<path opacity="0.15" d="M451.594 24.6891C453.071 25.5384 454.271 28.0863 454.271 30.3572C454.271 32.6281 453.071 33.7913 451.594 32.942C450.117 32.0927 448.917 29.5448 448.917 27.2739C448.898 25.003 450.098 23.8398 451.594 24.6891Z" fill="black"/>
<path opacity="0.15" d="M441.938 19.1141C443.415 19.9634 444.615 22.5113 444.615 24.7822C444.615 27.0531 443.415 28.2163 441.938 27.367C440.461 26.5177 439.261 23.9698 439.261 21.6989C439.261 19.4095 440.461 18.2648 441.938 19.1141Z" fill="black"/>
<path opacity="0.15" d="M432.282 13.5379C433.759 14.3872 434.959 16.9351 434.959 19.206C434.959 21.477 433.759 22.6401 432.282 21.7908C430.805 20.9415 429.605 18.3937 429.605 16.1227C429.605 13.8333 430.805 12.6886 432.282 13.5379Z" fill="black"/>
</g>
<path d="M734.74 449.693C735.054 449.693 735.386 449.6 735.663 449.434C736.235 449.102 736.586 448.493 736.586 447.828V373.644C736.586 372.943 736.364 372.186 735.958 371.484C735.552 370.783 734.998 370.21 734.407 369.859L712.215 357.046C711.421 356.585 710.553 356.566 709.833 356.972C709.261 357.305 708.873 357.822 708.689 358.449L706.898 364.431C706.805 364.727 706.621 364.948 706.399 365.041C706.178 365.133 705.901 365.096 705.624 364.93L653.429 334.817C652.765 334.429 652.1 334.355 651.546 334.614L651.306 334.743C650.752 335.094 650.457 335.74 650.457 336.534V398.791C650.457 400.212 651.417 401.874 652.654 402.594L733.817 449.453C734.112 449.619 734.426 449.693 734.74 449.693ZM710.941 358.246C711.107 358.246 711.273 358.302 711.44 358.394L733.632 371.189C733.983 371.392 734.352 371.798 734.629 372.26C734.906 372.721 735.054 373.22 735.054 373.644V447.828C735.054 447.976 734.961 448.049 734.906 448.086C734.85 448.123 734.74 448.16 734.61 448.086L653.429 401.228C652.672 400.785 652.026 399.658 652.026 398.791V336.534C652.026 336.239 652.1 336.109 652.137 336.072L652.229 336.017C652.211 336.035 652.377 336.017 652.654 336.183L704.848 366.296C705.531 366.684 706.307 366.758 706.972 366.499C707.655 366.222 708.153 365.65 708.393 364.893L710.184 358.911C710.258 358.652 710.406 358.468 710.59 358.357C710.683 358.283 710.812 358.246 710.941 358.246Z" fill="#E0E0E0"/>
<path d="M640.047 343.198C640.047 342.644 640.231 342.257 640.545 342.053L640.564 342.035C640.582 342.035 640.582 342.017 640.601 342.017L643.961 340.078C644.293 339.893 644.736 339.93 645.235 340.207L696.857 369.988L698.242 365.354C698.389 364.892 698.648 364.56 698.999 364.357H698.98L702.377 362.4V362.418C702.857 362.141 703.448 362.123 704.02 362.455L726.213 375.268C727.21 375.84 728.022 377.244 728.022 378.388V452.369C728.022 452.923 727.837 453.311 727.524 453.514L727.487 453.532H727.468L724.108 455.471C724.09 455.471 724.09 455.489 724.071 455.489L724.053 455.508C723.739 455.674 723.296 455.637 722.816 455.36L641.838 408.612C640.841 408.04 640.028 406.637 640.028 405.492L640.047 343.198Z" fill="#E6E6E6"/>
<path d="M699.032 364.322C699.493 364.063 700.084 364.063 700.656 364.395L722.83 377.19C723.329 377.486 723.772 377.966 724.104 378.538L727.483 376.581C727.151 376.009 726.707 375.51 726.209 375.233L704.035 362.438C703.444 362.106 702.853 362.125 702.392 362.401L699.032 364.322Z" fill="#F0F0F0"/>
<path d="M640.671 341.98C640.985 341.851 641.409 341.888 641.852 342.146L694.047 372.278C695.044 372.85 696.115 372.425 696.447 371.318L696.853 369.988L645.231 340.208C644.954 340.042 644.677 339.968 644.437 339.968C644.271 339.968 644.105 340.005 643.976 340.079L640.671 341.98Z" fill="#F0F0F0"/>
<path opacity="0.15" d="M724.382 455.194C724.327 455.268 724.272 455.323 724.216 455.379L727.484 453.495C727.484 453.495 727.484 453.495 727.503 453.495L727.539 453.477C727.669 453.384 727.761 453.274 727.853 453.126C727.89 453.052 727.927 452.997 727.946 452.923C728.001 452.757 728.038 452.572 728.038 452.332V378.352C728.038 378.278 728.038 378.204 728.038 378.13C728.02 377.982 728.001 377.835 727.964 377.687C727.946 377.613 727.927 377.539 727.909 377.465C727.835 377.244 727.743 377.022 727.632 376.801C727.595 376.727 727.558 376.653 727.521 376.579L724.142 378.536C724.475 379.09 724.659 379.736 724.659 380.309V454.289C724.659 454.4 724.659 454.511 724.641 454.603C724.641 454.658 724.622 454.714 724.604 454.769C724.604 454.806 724.585 454.825 724.585 454.862C724.567 454.898 724.548 454.954 724.53 454.972C724.475 455.065 724.438 455.138 724.382 455.194Z" fill="black"/>
<path d="M634.025 391.553C634.339 391.553 634.671 391.461 634.948 391.295C635.521 390.962 635.871 390.353 635.871 389.688V315.505C635.871 314.803 635.65 314.046 635.244 313.344C634.837 312.643 634.284 312.071 633.693 311.72L611.5 298.907C610.706 298.445 609.839 298.426 609.119 298.833C608.546 299.165 608.159 299.682 607.974 300.31L606.183 306.292C606.091 306.587 605.906 306.809 605.685 306.901C605.463 306.993 605.186 306.956 604.909 306.79L552.715 276.677C552.05 276.29 551.385 276.216 550.832 276.474L550.591 276.603C550.056 276.954 549.742 277.6 549.742 278.394V340.651C549.742 342.073 550.702 343.734 551.939 344.454L633.102 391.295C633.397 391.461 633.711 391.553 634.025 391.553ZM610.226 300.107C610.393 300.107 610.559 300.162 610.725 300.254L632.917 313.068C633.268 313.271 633.637 313.677 633.914 314.138C634.173 314.6 634.339 315.098 634.339 315.523V389.707C634.339 389.854 634.247 389.928 634.191 389.965C634.136 390.002 634.025 390.039 633.896 389.965L552.715 343.107C551.958 342.663 551.312 341.537 551.312 340.669V278.413C551.312 278.117 551.385 277.988 551.422 277.951L551.515 277.896C551.496 277.896 551.662 277.896 551.939 278.062L604.134 308.175C604.817 308.563 605.592 308.636 606.257 308.378C606.922 308.119 607.439 307.529 607.679 306.772L609.469 300.79C609.543 300.55 609.691 300.347 609.876 300.236C609.986 300.144 610.097 300.107 610.226 300.107Z" fill="#E0E0E0"/>
<path d="M539.347 285.059C539.347 284.505 539.532 284.117 539.846 283.914L539.864 283.895C539.882 283.895 539.882 283.877 539.901 283.877L543.261 281.938C543.594 281.754 544.037 281.791 544.535 282.068L596.157 311.848L597.542 307.214C597.69 306.752 597.948 306.42 598.299 306.217H598.28L601.678 304.26V304.278C602.158 304.001 602.748 303.983 603.321 304.315L625.513 317.128C626.51 317.701 627.323 319.104 627.323 320.249V394.229C627.323 394.783 627.138 395.171 626.824 395.374L626.787 395.392H626.769L623.408 397.331C623.39 397.331 623.39 397.35 623.371 397.35L623.353 397.368C623.039 397.534 622.596 397.497 622.116 397.22L541.138 350.472C540.141 349.9 539.329 348.497 539.329 347.352L539.347 285.059Z" fill="#E6E6E6"/>
<path d="M598.336 306.18C598.798 305.922 599.389 305.922 599.961 306.254L622.135 319.049C622.633 319.344 623.077 319.824 623.409 320.396L626.788 318.439C626.455 317.867 626.012 317.368 625.514 317.092L603.34 304.297C602.749 303.964 602.158 303.983 601.697 304.26L598.336 306.18Z" fill="#F0F0F0"/>
<path d="M539.956 283.84C540.27 283.71 540.695 283.747 541.138 284.006L593.332 314.119C594.329 314.691 595.4 314.266 595.732 313.158L596.138 311.829L544.516 282.049C544.239 281.882 543.962 281.809 543.722 281.809C543.556 281.809 543.39 281.846 543.261 281.919L539.956 283.84Z" fill="#F0F0F0"/>
<path opacity="0.15" d="M623.667 397.053C623.612 397.127 623.557 397.182 623.501 397.238L626.769 395.355C626.769 395.355 626.769 395.355 626.788 395.355L626.824 395.336C626.954 395.244 627.046 395.133 627.138 394.985C627.175 394.912 627.212 394.856 627.231 394.782C627.286 394.616 627.323 394.432 627.323 394.192V320.211C627.323 320.137 627.323 320.063 627.323 319.989C627.305 319.842 627.286 319.694 627.249 319.546C627.231 319.472 627.212 319.399 627.194 319.325C627.12 319.103 627.028 318.882 626.917 318.66C626.88 318.586 626.843 318.512 626.806 318.438L623.427 320.396C623.76 320.949 623.944 321.596 623.944 322.168V396.149C623.944 396.259 623.944 396.37 623.926 396.462C623.926 396.518 623.907 396.573 623.889 396.629C623.889 396.666 623.87 396.684 623.87 396.721C623.852 396.758 623.834 396.813 623.815 396.832C623.76 396.924 623.723 396.979 623.667 397.053Z" fill="black"/>
<path d="M533.328 333.412C533.642 333.412 533.974 333.32 534.251 333.154C534.824 332.822 535.175 332.212 535.175 331.548V257.364C535.175 256.662 534.953 255.905 534.547 255.204C534.141 254.502 533.587 253.93 532.996 253.579L510.804 240.766C510.01 240.304 509.142 240.286 508.422 240.692C507.85 241.024 507.462 241.541 507.277 242.169L505.486 248.151C505.394 248.446 505.228 248.668 504.988 248.76C504.766 248.853 504.489 248.816 504.212 248.65L452.018 218.537C451.353 218.149 450.689 218.075 450.135 218.334L449.895 218.463C449.359 218.814 449.045 219.46 449.045 220.254V282.51C449.045 283.932 450.005 285.594 451.242 286.314L532.424 333.172C532.682 333.32 532.996 333.412 533.328 333.412ZM509.53 241.966C509.696 241.966 509.862 242.021 510.028 242.114L532.22 254.927C532.571 255.13 532.941 255.536 533.218 255.998C533.494 256.459 533.642 256.958 533.642 257.382V331.566C533.642 331.714 533.55 331.788 533.494 331.825C533.439 331.862 533.328 331.898 533.199 331.825L452.018 284.966C451.261 284.523 450.615 283.397 450.615 282.529V220.272C450.615 219.977 450.689 219.847 450.725 219.811L450.818 219.755C450.799 219.774 450.966 219.755 451.242 219.921L503.437 250.034C504.12 250.422 504.895 250.496 505.56 250.237C506.243 249.96 506.742 249.388 506.982 248.631L508.773 242.649C508.847 242.409 508.994 242.206 509.179 242.095C509.271 241.984 509.4 241.966 509.53 241.966Z" fill="#E0E0E0"/>
<path d="M438.635 226.918C438.635 226.364 438.82 225.976 439.134 225.773L439.152 225.755C439.171 225.755 439.171 225.736 439.189 225.736L442.55 223.798C442.882 223.613 443.325 223.65 443.823 223.927L495.446 253.707L496.83 249.073C496.978 248.612 497.236 248.279 497.587 248.076H497.569L500.966 246.119V246.138C501.446 245.861 502.037 245.842 502.609 246.175L524.801 258.988C525.798 259.56 526.611 260.963 526.611 262.108V336.089C526.611 336.643 526.426 337.03 526.112 337.233L526.075 337.252H526.057L522.697 339.19C522.678 339.19 522.678 339.209 522.66 339.209L522.641 339.227C522.327 339.394 521.884 339.357 521.423 339.08L440.445 292.332C439.448 291.759 438.635 290.356 438.635 289.212V226.918Z" fill="#E6E6E6"/>
<path d="M497.619 248.022C498.08 247.763 498.671 247.763 499.243 248.096L521.417 260.89C521.916 261.186 522.359 261.666 522.691 262.238L526.07 260.281C525.737 259.709 525.294 259.21 524.796 258.933L502.622 246.139C502.031 245.806 501.44 245.825 500.979 246.102L497.619 248.022Z" fill="#F0F0F0"/>
<path d="M439.259 225.701C439.573 225.572 439.998 225.609 440.441 225.867L492.636 255.98C493.633 256.552 494.703 256.128 495.036 255.02L495.442 253.691L443.82 223.91C443.543 223.744 443.266 223.67 443.026 223.67C442.86 223.67 442.694 223.707 442.564 223.781L439.259 225.701Z" fill="#F0F0F0"/>
<path opacity="0.15" d="M522.969 338.916C522.913 338.989 522.858 339.045 522.803 339.1L526.071 337.217C526.071 337.217 526.071 337.217 526.089 337.217L526.126 337.198C526.255 337.106 526.348 336.995 526.44 336.848C526.477 336.774 526.514 336.718 526.532 336.645C526.588 336.478 526.625 336.294 526.625 336.054V262.073C526.625 261.999 526.625 261.926 526.625 261.852C526.606 261.704 526.588 261.556 526.551 261.409C526.532 261.335 526.514 261.261 526.495 261.187C526.421 260.965 526.329 260.744 526.218 260.522C526.181 260.448 526.144 260.375 526.108 260.301L522.729 262.258C523.061 262.812 523.246 263.458 523.246 264.03V338.011C523.246 338.122 523.246 338.232 523.227 338.325C523.227 338.38 523.209 338.436 523.19 338.491C523.19 338.528 523.172 338.546 523.172 338.583C523.154 338.62 523.135 338.676 523.117 338.694C523.061 338.786 523.006 338.842 522.969 338.916Z" fill="black"/>
<path d="M734.74 331.011C735.054 331.011 735.386 330.919 735.663 330.753C736.235 330.42 736.586 329.811 736.586 329.146V254.963C736.586 254.261 736.365 253.504 735.958 252.802C735.552 252.101 734.998 251.529 734.407 251.178L712.215 238.365C711.421 237.903 710.553 237.884 709.833 238.291C709.261 238.623 708.873 239.14 708.689 239.768L706.898 245.75C706.805 246.045 706.621 246.267 706.399 246.359C706.178 246.451 705.901 246.414 705.624 246.248L653.429 216.135C652.765 215.748 652.1 215.674 651.546 215.932L651.306 216.061C650.752 216.412 650.457 217.058 650.457 217.852V280.109C650.457 281.531 651.417 283.192 652.654 283.912L733.835 330.771C734.112 330.937 734.426 331.011 734.74 331.011ZM710.941 239.565C711.107 239.565 711.274 239.62 711.44 239.712L733.632 252.526C733.983 252.729 734.352 253.135 734.629 253.596C734.906 254.058 735.054 254.556 735.054 254.981V329.165C735.054 329.312 734.961 329.386 734.906 329.423C734.851 329.46 734.74 329.497 734.611 329.423L653.429 282.565C652.672 282.121 652.026 280.995 652.026 280.127V217.871C652.026 217.594 652.1 217.446 652.137 217.409L652.229 217.354C652.211 217.372 652.377 217.354 652.654 217.52L704.848 247.633C705.532 248.021 706.307 248.094 706.972 247.836C707.636 247.577 708.153 246.987 708.393 246.23L710.184 240.248C710.258 240.008 710.406 239.805 710.59 239.694C710.683 239.602 710.812 239.565 710.941 239.565Z" fill="#E0E0E0"/>
<path d="M640.045 224.514C640.045 223.96 640.23 223.572 640.543 223.369L640.562 223.35C640.58 223.35 640.58 223.332 640.599 223.332L643.959 221.393C644.291 221.209 644.734 221.246 645.233 221.523L696.855 251.303L698.24 246.669C698.388 246.207 698.646 245.875 698.997 245.672H698.978L702.375 243.715V243.733C702.856 243.456 703.446 243.438 704.019 243.77L726.211 256.584C727.208 257.156 728.02 258.559 728.02 259.704V333.684C728.02 334.238 727.836 334.626 727.522 334.829L727.485 334.848H727.466L724.106 336.786C724.088 336.786 724.088 336.805 724.069 336.805L724.051 336.823C723.737 336.989 723.294 336.952 722.814 336.675L641.836 289.927C640.839 289.355 640.026 287.952 640.026 286.807L640.045 224.514Z" fill="#E6E6E6"/>
<path d="M699.031 245.639C699.493 245.381 700.084 245.38 700.656 245.713L722.83 258.508C723.329 258.803 723.772 259.283 724.104 259.855L727.483 257.898C727.15 257.326 726.707 256.827 726.209 256.551L704.035 243.756C703.444 243.423 702.853 243.442 702.392 243.719L699.031 245.639Z" fill="#F0F0F0"/>
<path d="M640.67 223.298C640.984 223.169 641.409 223.206 641.852 223.465L694.047 253.578C695.044 254.15 696.114 253.725 696.447 252.617L696.853 251.288L645.231 221.508C644.954 221.341 644.677 221.268 644.437 221.268C644.271 221.268 644.105 221.304 643.975 221.378L640.67 223.298Z" fill="#F0F0F0"/>
<path opacity="0.15" d="M724.382 336.512C724.327 336.586 724.272 336.641 724.216 336.697L727.484 334.814C727.484 334.814 727.484 334.814 727.503 334.814L727.54 334.795C727.669 334.703 727.761 334.592 727.853 334.444C727.89 334.371 727.927 334.315 727.946 334.241C728.001 334.075 728.038 333.891 728.038 333.65V259.67C728.038 259.596 728.038 259.522 728.038 259.448C728.02 259.301 728.001 259.153 727.964 259.005C727.946 258.931 727.927 258.858 727.909 258.784C727.835 258.562 727.743 258.341 727.632 258.119C727.595 258.045 727.558 257.971 727.521 257.897L724.142 259.855C724.475 260.408 724.659 261.055 724.659 261.627V335.608C724.659 335.718 724.659 335.829 724.641 335.921C724.641 335.977 724.622 336.032 724.604 336.088C724.604 336.125 724.586 336.143 724.586 336.18C724.567 336.217 724.549 336.272 724.53 336.291C724.475 336.383 724.438 336.457 724.382 336.512Z" fill="black"/>
<path d="M634.025 272.871C634.339 272.871 634.671 272.779 634.948 272.613C635.521 272.281 635.872 271.671 635.872 271.007V196.823C635.872 196.121 635.65 195.364 635.244 194.663C634.838 193.961 634.284 193.389 633.693 193.038L611.501 180.225C610.707 179.763 609.839 179.745 609.119 180.151C608.547 180.483 608.159 181 607.956 181.628L606.165 187.61C606.073 187.905 605.888 188.127 605.666 188.219C605.445 188.312 605.168 188.275 604.891 188.108L552.696 157.996C552.032 157.608 551.367 157.534 550.813 157.793L550.573 157.922C550.038 158.273 549.724 158.919 549.724 159.713V221.969C549.724 223.391 550.684 225.053 551.921 225.773L633.102 272.631C633.398 272.779 633.711 272.871 634.025 272.871ZM610.227 181.425C610.393 181.425 610.559 181.48 610.725 181.573L632.918 194.386C633.268 194.589 633.638 194.995 633.915 195.457C634.173 195.918 634.339 196.417 634.339 196.841V271.025C634.339 271.173 634.247 271.247 634.191 271.284C634.136 271.321 634.025 271.357 633.896 271.284L552.715 224.425C551.958 223.982 551.312 222.856 551.312 221.988V159.694C551.312 159.399 551.386 159.27 551.423 159.233L551.515 159.177C551.496 159.196 551.663 159.177 551.94 159.343L604.134 189.456C604.817 189.844 605.593 189.918 606.257 189.659C606.94 189.382 607.439 188.81 607.679 188.053L609.47 182.071C609.544 181.813 609.691 181.628 609.876 181.517C609.987 181.462 610.097 181.425 610.227 181.425Z" fill="#E0E0E0"/>
<path d="M539.347 166.378C539.347 165.824 539.532 165.436 539.846 165.233L539.864 165.215C539.883 165.215 539.883 165.196 539.901 165.196L543.261 163.258C543.594 163.073 544.037 163.11 544.535 163.387L596.157 193.167L597.542 188.533C597.69 188.072 597.948 187.739 598.299 187.536H598.281L601.678 185.579V185.598C602.158 185.321 602.749 185.302 603.321 185.635L625.513 198.448C626.51 199.02 627.323 200.423 627.323 201.568V275.549C627.323 276.103 627.138 276.49 626.824 276.693L626.787 276.712H626.769L623.409 278.65C623.39 278.65 623.39 278.669 623.372 278.669L623.353 278.687C623.039 278.853 622.596 278.817 622.116 278.54L541.138 231.792C540.141 231.219 539.329 229.816 539.329 228.671L539.347 166.378Z" fill="#E6E6E6"/>
<path d="M598.337 187.498C598.798 187.24 599.389 187.24 599.961 187.572L622.135 200.367C622.634 200.662 623.077 201.142 623.409 201.715L626.788 199.758C626.456 199.185 626.012 198.687 625.514 198.41L603.34 185.615C602.749 185.283 602.158 185.301 601.697 185.578L598.337 187.498Z" fill="#F0F0F0"/>
<path d="M539.956 165.158C540.27 165.029 540.695 165.066 541.138 165.324L593.332 195.437C594.329 196.009 595.4 195.585 595.732 194.477L596.139 193.148L544.517 163.367C544.24 163.201 543.963 163.127 543.723 163.127C543.556 163.127 543.39 163.164 543.261 163.238L539.956 165.158Z" fill="#F0F0F0"/>
<path opacity="0.15" d="M623.668 278.371C623.612 278.444 623.557 278.5 623.501 278.555L626.769 276.672C626.769 276.672 626.769 276.672 626.788 276.672L626.825 276.654C626.954 276.561 627.046 276.451 627.139 276.303C627.176 276.229 627.212 276.174 627.231 276.1C627.286 275.934 627.323 275.749 627.323 275.509V201.528C627.323 201.454 627.323 201.381 627.323 201.307C627.305 201.159 627.286 201.011 627.249 200.864C627.231 200.79 627.212 200.716 627.194 200.642C627.12 200.421 627.028 200.199 626.917 199.977C626.88 199.904 626.843 199.83 626.806 199.756L623.428 201.713C623.76 202.267 623.945 202.913 623.945 203.485V277.466C623.945 277.577 623.945 277.688 623.926 277.78C623.926 277.835 623.908 277.891 623.889 277.946C623.889 277.983 623.871 278.001 623.871 278.038C623.852 278.075 623.834 278.131 623.815 278.149C623.76 278.241 623.723 278.297 623.668 278.371Z" fill="black"/>
<path d="M533.329 214.731C533.642 214.731 533.975 214.638 534.252 214.472C534.824 214.14 535.175 213.531 535.175 212.866V138.682C535.175 137.981 534.953 137.224 534.547 136.522C534.141 135.821 533.587 135.248 532.996 134.897L510.804 122.084C510.01 121.623 509.142 121.604 508.422 122.01C507.85 122.343 507.462 122.86 507.277 123.487L505.487 129.469C505.394 129.765 505.228 129.986 504.988 130.079C504.766 130.171 504.49 130.134 504.213 129.968L452.018 99.855C451.353 99.4673 450.689 99.3934 450.135 99.6519L449.895 99.7811C449.359 100.132 449.046 100.778 449.046 101.572V163.829C449.046 165.25 450.006 166.912 451.243 167.632L532.424 214.491C532.682 214.638 532.996 214.731 533.329 214.731ZM509.53 123.284C509.696 123.284 509.862 123.34 510.028 123.432L532.221 136.227C532.572 136.43 532.941 136.836 533.218 137.298C533.495 137.759 533.642 138.258 533.642 138.682V212.866C533.642 213.014 533.55 213.088 533.495 213.125C533.439 213.161 533.329 213.198 533.199 213.125L452.018 166.266C451.261 165.823 450.615 164.696 450.615 163.829V101.554C450.615 101.258 450.689 101.129 450.726 101.092L450.818 101.037C450.8 101.037 450.966 101.037 451.243 101.184L503.437 131.297C504.12 131.685 504.896 131.759 505.56 131.5C506.244 131.223 506.742 130.651 506.982 129.894L508.773 123.912C508.847 123.672 508.994 123.469 509.179 123.358C509.271 123.303 509.401 123.284 509.53 123.284Z" fill="#E0E0E0"/>
<path d="M438.636 108.238C438.636 107.684 438.821 107.297 439.135 107.094L439.153 107.075C439.172 107.075 439.172 107.057 439.19 107.057L442.551 105.118C442.883 104.933 443.326 104.97 443.824 105.247L495.447 135.028L496.831 130.394C496.979 129.932 497.237 129.6 497.588 129.397H497.57L500.967 127.44V127.458C501.447 127.181 502.038 127.163 502.61 127.495L524.802 140.308C525.799 140.881 526.612 142.284 526.612 143.428V217.409C526.612 217.963 526.427 218.351 526.113 218.554L526.076 218.572H526.058L522.698 220.511C522.679 220.511 522.679 220.529 522.661 220.529L522.642 220.548C522.328 220.714 521.885 220.677 521.424 220.4L440.446 173.652C439.449 173.08 438.636 171.677 438.636 170.532V108.238Z" fill="#E6E6E6"/>
<path d="M497.619 129.343C498.081 129.085 498.672 129.085 499.244 129.417L521.418 142.212C521.916 142.507 522.36 142.987 522.692 143.559L526.071 141.602C525.738 141.03 525.295 140.532 524.797 140.255L502.623 127.46C502.032 127.128 501.441 127.146 500.98 127.423L497.619 129.343Z" fill="#F0F0F0"/>
<path d="M439.26 107.02C439.574 106.891 439.998 106.928 440.441 107.186L492.636 137.299C493.633 137.872 494.704 137.447 495.036 136.339L495.442 135.01L443.82 105.229C443.543 105.063 443.266 104.989 443.026 104.989C442.86 104.989 442.694 105.026 442.565 105.1L439.26 107.02Z" fill="#F0F0F0"/>
<path opacity="0.15" d="M522.969 220.233C522.914 220.307 522.859 220.362 522.803 220.418L526.071 218.534C526.071 218.534 526.071 218.534 526.09 218.534L526.126 218.516C526.256 218.424 526.348 218.313 526.44 218.165C526.477 218.091 526.514 218.036 526.533 217.962C526.588 217.796 526.625 217.611 526.625 217.371V143.391C526.625 143.317 526.625 143.243 526.625 143.169C526.607 143.021 526.588 142.874 526.551 142.726C526.533 142.652 526.514 142.578 526.496 142.504C526.422 142.283 526.33 142.061 526.219 141.84C526.182 141.766 526.145 141.692 526.108 141.618L522.729 143.575C523.062 144.129 523.246 144.775 523.246 145.348V219.328C523.246 219.439 523.246 219.55 523.228 219.642C523.228 219.698 523.209 219.753 523.191 219.808C523.191 219.845 523.172 219.864 523.172 219.901C523.154 219.938 523.136 219.993 523.117 220.011C523.062 220.104 523.006 220.159 522.969 220.233Z" fill="black"/>
<path d="M524.761 624.254L542.149 614.21L263.925 453.57L246.537 463.614L524.761 624.254Z" fill="#64B82A"/>
<path opacity="0.35" d="M524.761 624.254L542.149 614.21L263.925 453.57L246.537 463.614L524.761 624.254Z" fill="black"/>
<path d="M264.408 446.453C264.136 450.374 266.685 455.17 270.108 457.146L517.22 599.809L523.464 603.398L540.475 613.216C541.681 611.27 542.511 609.084 542.661 607.093L559.522 357.206C559.567 356.482 559.582 355.743 559.537 355.019C559.522 354.823 559.506 354.627 559.491 354.431C559.476 354.25 559.461 354.069 559.446 353.903C559.416 353.737 559.401 353.571 559.371 353.436C559.341 353.24 559.31 353.044 559.265 352.848C559.19 352.455 559.114 352.078 559.009 351.716C558.979 351.596 558.948 351.505 558.918 351.385C558.873 351.249 558.828 351.113 558.783 350.993C558.752 350.887 558.602 350.495 558.556 350.389C558.149 349.439 557.652 348.73 557.094 348.399C555.48 347.464 553.761 343.558 553.218 339.652L551.137 324.677C550.594 320.786 547.397 316.02 543.973 314.045L463.593 267.642C460.185 265.651 456.4 267.099 455.133 270.824L452.147 279.721C450.88 283.461 447.095 284.894 443.687 282.918L287.948 193.007C284.54 191.017 281.554 192.615 281.283 196.551L264.408 446.453Z" fill="#64B82A"/>
<path opacity="0.1" d="M264.408 446.453C264.136 450.374 266.685 455.17 270.108 457.146L517.22 599.809L523.464 603.398L540.475 613.216C541.681 611.27 542.511 609.084 542.661 607.093L559.522 357.206C559.567 356.482 559.582 355.743 559.537 355.019C559.522 354.823 559.506 354.627 559.491 354.431C559.476 354.25 559.461 354.069 559.446 353.903C559.416 353.737 559.401 353.571 559.371 353.436C559.341 353.24 559.31 353.044 559.265 352.848C559.19 352.455 559.114 352.078 559.009 351.716C558.979 351.596 558.948 351.505 558.918 351.385C558.873 351.249 558.828 351.113 558.783 350.993C558.752 350.887 558.602 350.495 558.556 350.389C558.149 349.439 557.652 348.73 557.094 348.399C555.48 347.464 553.761 343.558 553.218 339.652L551.137 324.677C550.594 320.786 547.397 316.02 543.973 314.045L463.593 267.642C460.185 265.651 456.4 267.099 455.133 270.824L452.147 279.721C450.88 283.461 447.095 284.894 443.687 282.918L287.948 193.007C284.54 191.017 281.554 192.615 281.283 196.551L264.408 446.453Z" fill="black"/>
<path d="M283.5 192.54C284.495 192.042 285.762 192.042 287.134 192.631C287.27 192.691 287.406 192.751 287.526 192.812C287.662 192.872 287.798 192.947 287.933 193.023L443.672 282.934C444.094 283.175 444.531 283.371 444.969 283.522C445.15 283.582 445.361 283.643 445.542 283.673C445.602 283.688 445.662 283.703 445.708 283.703C448.241 284.185 450.669 282.934 451.83 280.385C451.046 280.28 450.247 280.023 449.463 279.586L293.724 189.66C291.99 188.649 290.361 188.574 289.14 189.268C288.537 189.63 284.329 192.073 283.5 192.54Z" fill="#64B82A"/>
<path opacity="0.3" d="M283.5 192.54C284.495 192.042 285.762 192.042 287.134 192.631C287.27 192.691 287.406 192.751 287.526 192.812C287.662 192.872 287.798 192.947 287.933 193.023L443.672 282.934C444.094 283.175 444.531 283.371 444.969 283.522C445.15 283.582 445.361 283.643 445.542 283.673C445.602 283.688 445.662 283.703 445.708 283.703C448.241 284.185 450.669 282.934 451.83 280.385C451.046 280.28 450.247 280.023 449.463 279.586L293.724 189.66C291.99 188.649 290.361 188.574 289.14 189.268C288.537 189.63 284.329 192.073 283.5 192.54Z" fill="white"/>
<path d="M463.609 264.157C465.283 263.192 467.394 263.162 469.385 264.308L549.78 310.711C551.65 311.797 553.445 313.728 554.787 315.884L548.996 319.232C547.654 317.076 545.859 315.145 543.989 314.059L463.609 267.656C463.564 267.626 463.519 267.611 463.473 267.596C461.498 266.48 459.432 266.525 457.788 267.475C458.089 267.309 462.674 264.685 463.609 264.157Z" fill="#64B82A"/>
<path opacity="0.3" d="M463.609 264.157C465.283 263.192 467.394 263.162 469.385 264.308L549.78 310.711C551.65 311.797 553.445 313.728 554.787 315.884L548.996 319.232C547.654 317.076 545.859 315.145 543.989 314.059L463.609 267.656C463.564 267.626 463.519 267.611 463.473 267.596C461.498 266.48 459.432 266.525 457.788 267.475C458.089 267.309 462.674 264.685 463.609 264.157Z" fill="white"/>
<path d="M556.928 321.359L559.009 336.334C559.552 340.225 561.287 344.161 562.885 345.066C563.458 345.398 563.956 346.106 564.348 347.057L558.557 350.404C558.542 350.359 558.361 349.982 558.285 349.831C558.225 349.726 558.165 349.635 558.12 349.53C557.818 349.017 557.456 348.625 557.094 348.414C555.48 347.479 553.761 343.573 553.218 339.667L551.137 324.692C550.896 322.927 550.097 321.012 548.981 319.233L554.772 315.885C555.888 317.679 556.687 319.595 556.928 321.359Z" fill="#64B82A"/>
<path opacity="0.15" d="M556.928 321.359L559.009 336.334C559.552 340.225 561.287 344.161 562.885 345.066C563.458 345.398 563.956 346.106 564.348 347.057L558.557 350.404C558.542 350.359 558.361 349.982 558.285 349.831C558.225 349.726 558.165 349.635 558.12 349.53C557.818 349.017 557.456 348.625 557.094 348.414C555.48 347.479 553.761 343.573 553.218 339.667L551.137 324.692C550.896 322.927 550.097 321.012 548.981 319.233L554.772 315.885C555.888 317.679 556.687 319.595 556.928 321.359Z" fill="black"/>
<path d="M262.961 212.764C263.096 210.848 263.865 209.491 265.027 208.828C266.052 208.239 269.792 206.068 270.818 205.48C272.039 204.786 273.668 204.846 275.417 205.857L541.29 359.378C544.698 361.354 547.247 366.134 546.99 370.07L531.427 600.639C531.291 602.539 530.537 603.896 529.391 604.56C528.366 605.163 524.611 607.32 523.585 607.923C522.364 608.632 520.735 608.556 518.985 607.546L253.113 454.04C249.705 452.064 247.156 447.283 247.412 443.347L262.961 212.764Z" fill="white"/>
<path d="M523.57 607.907C524.595 607.304 528.35 605.132 529.376 604.544C530.522 603.88 531.291 602.538 531.411 600.623L546.975 370.069C547.095 368.38 546.658 366.556 545.889 364.852L540.113 368.184C540.882 369.904 541.289 371.728 541.169 373.402L525.621 603.971C525.5 605.901 524.731 607.243 523.57 607.907Z" fill="#E0E0E0"/>
<path d="M535.499 362.71L269.626 209.219C266.218 207.243 263.232 208.842 262.96 212.763L247.397 443.331C247.126 447.267 249.689 452.048 253.098 454.023L518.97 607.53C522.378 609.505 525.364 607.907 525.636 603.986L541.184 373.402C541.455 369.466 538.907 364.685 535.499 362.71Z" fill="#F0F0F0"/>
<path d="M509.44 381.727L524.324 617.121C524.566 621.057 527.536 622.641 530.96 620.68L535.997 617.77C539.405 615.794 542.391 611.013 542.662 607.077L559.538 357.19C559.704 354.657 559.312 352.108 558.588 350.389L564.379 347.041C565.102 348.775 565.495 351.309 565.329 353.842L547.986 610.697C547.714 614.633 544.744 619.413 541.32 621.389L525.576 630.483C522.168 632.458 519.197 630.86 518.94 626.924L503.649 385.059C503.588 384.2 503.407 383.295 503.121 382.39L508.927 379.057C509.198 379.977 509.379 380.867 509.44 381.727Z" fill="#64B82A"/>
<path opacity="0.25" d="M509.44 381.727L524.324 617.121C524.566 621.057 527.536 622.641 530.96 620.68L535.997 617.77C539.405 615.794 542.391 611.013 542.662 607.077L559.538 357.19C559.704 354.657 559.312 352.108 558.588 350.389L564.379 347.041C565.102 348.775 565.495 351.309 565.329 353.842L547.986 610.697C547.714 614.633 544.744 619.413 541.32 621.389L525.576 630.483C522.168 632.458 519.197 630.86 518.94 626.924L503.649 385.059C503.588 384.2 503.407 383.295 503.121 382.39L508.927 379.057C509.198 379.977 509.379 380.867 509.44 381.727Z" fill="black"/>
<path d="M227.144 219.85C228.155 219.383 229.542 219.534 231.095 220.439L231.171 220.484L497.013 374.382C499.682 375.92 502.065 379.193 503.106 382.42L508.912 379.087C507.871 375.86 505.473 372.588 502.819 371.049L236.916 217.121C235.227 216.156 233.78 216.035 232.739 216.638C232.287 216.88 228.17 219.262 227.144 219.85Z" fill="#64B82A"/>
<path opacity="0.3" d="M227.144 219.85C228.155 219.383 229.542 219.534 231.095 220.439L231.171 220.484L497.013 374.382C499.682 375.92 502.065 379.193 503.106 382.42L508.912 379.087C507.871 375.86 505.473 372.588 502.819 371.049L236.916 217.121C235.227 216.156 233.78 216.035 232.739 216.638C232.287 216.88 228.17 219.262 227.144 219.85Z" fill="white"/>
<path d="M497.013 374.382C500.421 376.373 503.392 381.153 503.648 385.09L518.94 627.044C519.212 630.633 521.76 632.217 524.822 630.875C523.208 631.629 521.233 632.006 519.257 631.991C517.07 631.975 514.899 631.508 513.24 630.543L247.337 476.991C243.929 475.016 240.958 470.235 240.702 466.299L225.38 224.013C225.138 220.077 227.687 218.478 231.11 220.454L497.013 374.382Z" fill="#64B82A"/>
<path d="M676.885 588.122C692.492 572.019 701.641 506.51 686.44 493.752H609.023C593.805 506.51 602.971 572.001 618.56 588.104C618.702 588.246 618.844 588.405 618.985 588.546C619.162 588.723 619.339 588.9 619.516 589.077C619.958 589.502 620.418 589.927 620.932 590.351C621.056 590.458 621.179 590.546 621.303 590.652C621.693 590.953 622.064 591.254 622.489 591.555C623.161 592.033 623.834 592.475 624.506 592.864C637.335 600.349 658.145 600.349 670.974 592.864C671.665 592.475 672.337 592.033 673.009 591.555C673.399 591.289 673.753 591.006 674.107 590.723C674.266 590.599 674.407 590.493 674.567 590.351C675.044 589.944 675.504 589.537 675.929 589.13C676.141 588.936 676.336 588.723 676.548 588.511C676.655 588.37 676.779 588.246 676.885 588.122Z" fill="#39444F"/>
<path d="M615.747 488.62C598.087 498.937 598.087 515.659 615.747 525.975C633.407 536.292 662.056 536.292 679.716 525.975C697.376 515.659 697.376 498.937 679.716 488.62C662.056 478.304 633.407 478.304 615.747 488.62Z" fill="#596E81"/>
<path d="M624.241 493.575C611.27 501.148 611.27 513.429 624.241 521.003C637.212 528.576 658.252 528.576 671.222 521.003C684.193 513.429 684.193 501.148 671.222 493.575C658.252 486.001 637.212 486.001 624.241 493.575Z" fill="#39444F"/>
<path d="M671.222 506.599C658.252 499.026 637.212 499.026 624.241 506.599C620.631 508.705 618.065 511.182 616.473 513.801C618.083 516.438 620.631 518.898 624.241 521.003C637.212 528.577 658.252 528.577 671.222 521.003C674.832 518.898 677.398 516.42 678.991 513.801C677.38 511.165 674.814 508.687 671.222 506.599Z" fill="#DDDFE1"/>
<path d="M679.078 389.189L653.314 409.627L678.247 398.125C678.247 398.125 678.424 410.654 673.911 421.731C673.911 421.731 661.631 429.057 654.499 435.48L673.611 427.924C673.611 427.924 674.92 440.524 669.682 459.723C668.302 464.749 662.657 474.357 659.083 481.542C657.472 484.798 655.632 488.018 653.526 491.133C653.402 491.327 653.278 491.522 653.137 491.717C648.766 489.222 644.218 486.797 639.511 484.444C636.432 477.985 632.433 462.024 630.982 448.964C625.479 398.939 663.294 370.29 693.713 360.664C693.73 360.682 683.29 373.776 679.078 389.189Z" fill="#55A120"/>
<path opacity="0.3" d="M679.078 389.189L653.314 409.627L678.247 398.125C678.247 398.125 678.424 410.654 673.911 421.731C673.911 421.731 661.631 429.057 654.499 435.48L673.611 427.924C673.611 427.924 674.92 440.524 669.682 459.723C668.302 464.749 662.657 474.357 659.083 481.542C657.472 484.798 655.632 488.018 653.526 491.133C653.402 491.327 653.278 491.522 653.137 491.717C648.766 489.222 644.218 486.797 639.511 484.444C636.432 477.985 632.433 462.024 630.982 448.964C625.479 398.939 663.294 370.29 693.713 360.664C693.73 360.682 683.29 373.776 679.078 389.189Z" fill="white"/>
<path d="M657.526 391.277C652.271 396.568 649.192 403.54 646.82 410.495C644.485 417.502 642.998 424.793 642.237 432.136C640.698 446.806 642.397 461.865 647.687 475.561V475.578C647.829 475.95 647.652 476.375 647.28 476.516C646.909 476.658 646.484 476.481 646.343 476.109C646.343 476.109 646.343 476.109 646.343 476.092C641.158 462.041 639.724 446.806 641.512 432.048C642.397 424.669 644.007 417.378 646.466 410.371C648.962 403.434 652.182 396.48 657.526 391.277Z" fill="#FAFAFA"/>
<path d="M567.509 415.415C567.509 415.415 567.526 415.433 567.544 415.451C568.181 416.211 578.763 428.811 594.477 453.301L620.631 457.513L601.342 460.875L611.694 477.279L637.424 482.605L617.321 485.879C617.321 485.879 622.896 505.485 637.282 513.66C645.227 518.173 649.103 518.863 651.491 516.598C653.155 515.023 653.544 505.609 654.942 497.204C656.34 488.816 656.446 475.155 648.519 458.681C646.413 454.292 643.599 450.258 640.272 446.577C621.268 425.378 585.293 415.15 567.509 415.415Z" fill="#55A120"/>
<path opacity="0.1" d="M567.509 415.415C567.509 415.415 567.526 415.433 567.544 415.451C568.181 416.211 578.763 428.811 594.477 453.301L620.631 457.513L601.342 460.875L611.694 477.279L637.424 482.605L617.321 485.879C617.321 485.879 622.896 505.485 637.282 513.66C645.227 518.173 649.103 518.863 651.491 516.598C653.155 515.023 653.544 505.609 654.942 497.204C656.34 488.816 656.446 475.155 648.519 458.681C646.413 454.292 643.599 450.258 640.272 446.577C621.268 425.378 585.293 415.15 567.509 415.415Z" fill="white"/>
<path d="M594.882 423.979C608.402 429.907 621.195 438.047 631.264 449.106C636.325 454.574 640.59 460.821 643.722 467.598C646.765 474.411 648.747 481.701 649.42 489.08C649.42 489.116 649.402 489.151 649.349 489.151C649.314 489.151 649.278 489.133 649.278 489.098C647.792 481.843 645.651 474.782 642.412 468.2C639.298 461.581 635.21 455.423 630.397 449.867C620.682 438.79 608.154 430.402 594.829 424.102C594.794 424.085 594.776 424.049 594.794 424.014C594.794 423.979 594.847 423.961 594.882 423.979Z" fill="#FAFAFA"/>
<path d="M723.318 426.208C721.353 426.172 719.142 426.261 716.735 426.508C709.515 427.234 700.579 429.269 691.572 432.631C688.564 433.746 685.556 435.02 682.583 436.436C681.096 437.143 679.628 437.887 678.177 438.665C670.921 442.576 664.179 447.442 658.888 453.246C656.27 456.113 654.04 459.227 652.253 462.572C652.023 463.014 651.775 463.439 651.545 463.881C650.979 465.032 650.483 466.164 650.005 467.279C644.449 479.843 643.971 488.566 644.325 498.246C644.591 505.749 647.156 514.331 648.607 515.747C648.802 515.941 649.032 516.101 649.262 516.224C651.403 517.587 654.801 516.791 661.171 513.234C673.912 506.103 678.92 488.053 678.92 488.053L661.207 485.045L683.945 480.497L693.182 466.093L676.177 462.997L699.287 459.44C713.302 437.922 722.716 426.88 723.282 426.208C723.318 426.225 723.335 426.208 723.318 426.208Z" fill="#55A120"/>
<path opacity="0.2" d="M723.318 426.208C721.353 426.172 719.142 426.261 716.735 426.508C709.515 427.234 700.579 429.269 691.572 432.631C688.564 433.746 685.556 435.02 682.583 436.436C681.096 437.143 679.628 437.887 678.177 438.665C670.921 442.576 664.179 447.442 658.888 453.246C656.27 456.113 654.04 459.227 652.253 462.572C652.023 463.014 651.775 463.439 651.545 463.881C650.979 465.032 650.483 466.164 650.005 467.279C644.449 479.843 643.971 488.566 644.325 498.246C644.591 505.749 647.156 514.331 648.607 515.747C648.802 515.941 649.032 516.101 649.262 516.224C651.403 517.587 654.801 516.791 661.171 513.234C673.912 506.103 678.92 488.053 678.92 488.053L661.207 485.045L683.945 480.497L693.182 466.093L676.177 462.997L699.287 459.44C713.302 437.922 722.716 426.88 723.282 426.208C723.318 426.225 723.335 426.208 723.318 426.208Z" fill="white"/>
<path opacity="0.3" d="M716.752 426.51C709.532 427.236 700.596 429.271 691.589 432.633C688.58 433.747 685.572 435.022 682.599 436.437C681.113 437.145 679.644 437.888 678.193 438.667C670.938 442.578 664.196 447.444 658.905 453.248C656.286 456.115 654.057 459.229 652.269 462.573C652.039 463.016 651.792 463.44 651.562 463.883C650.995 465.033 650.5 466.166 650.022 467.28C644.466 479.844 643.988 488.568 644.342 498.247C644.607 505.75 647.173 514.333 648.624 515.748C648.819 515.943 649.049 516.102 649.279 516.226C649.686 516.491 650.164 516.651 650.677 516.739C649.102 505.096 654.835 475.597 663.488 463.458C672.513 450.841 693.889 432.526 723.299 426.209L723.281 426.174C721.317 426.174 719.123 426.28 716.752 426.51Z" fill="#55A120"/>
<path d="M650.589 516.774C649.97 508.174 650.66 499.521 652.253 491.045C653.951 482.604 656.517 474.234 660.782 466.643C665.135 459.052 671.399 452.84 678.053 447.355C684.848 441.993 692.28 437.428 700.225 434.066C700.26 434.048 700.296 434.066 700.313 434.101C700.331 434.136 700.313 434.172 700.278 434.189C692.722 438.277 685.502 442.966 678.955 448.47C675.646 451.177 672.479 454.061 669.594 457.194C666.657 460.29 663.914 463.582 661.773 467.227C657.473 474.588 654.783 482.834 652.943 491.186C651.173 499.574 650.271 508.174 650.713 516.774C650.713 516.809 650.678 516.845 650.642 516.845C650.625 516.845 650.607 516.809 650.589 516.774Z" fill="#FAFAFA"/>
<path d="M239.196 282.413L233.936 281.3C229.888 280.44 226.603 275.928 226.623 271.259C226.642 266.59 229.947 263.484 233.995 264.343L239.255 265.457C243.303 266.316 246.588 270.829 246.568 275.498C246.549 280.167 243.244 283.273 239.196 282.413Z" fill="#FFC2B0"/>
<g style="mix-blend-mode:multiply" opacity="0.1">
<path d="M184.763 543.853C185.125 523.434 152.074 506.291 110.943 505.564C69.8111 504.836 36.174 520.8 35.8122 541.219C35.4503 561.638 68.5007 578.781 109.632 579.509C150.764 580.236 184.401 564.273 184.763 543.853Z" fill="#39444F"/>
</g>
<path d="M90.5227 552.528L69.3257 531.547C66.4903 529.906 60.0765 529.203 55.7354 529.789C53.78 530.043 52.3134 531.684 52.157 533.637L51.8441 537.877C51.1793 543.972 51.7268 544.851 55.4812 547.019L77.7732 559.873C81.5277 562.042 87.2571 562.276 90.5031 560.401L91.4222 559.873C94.6878 557.998 94.2771 554.697 90.5227 552.528Z" fill="#39444F"/>
<path d="M53.8792 530.805C53.8792 537.057 69.112 537.057 69.112 530.805V510.469H53.8792V530.805Z" fill="#CCCCCC"/>
<path d="M140.565 525.668L119.368 504.687C116.533 503.046 110.119 502.343 105.778 502.929C103.822 503.183 102.356 504.824 102.199 506.777L101.887 511.016C101.222 517.111 101.769 517.99 105.524 520.159L127.816 533.013C131.57 535.181 137.3 535.416 140.546 533.541L141.465 533.013C144.73 531.157 144.32 527.836 140.565 525.668Z" fill="#39444F"/>
<path d="M103.937 503.945C103.937 510.196 119.17 510.196 119.17 503.945V483.608H103.937V503.945Z" fill="#CCCCCC"/>
<path d="M101.905 498.181C107.869 502.459 117.744 502.361 121.049 497.38L136.438 309.509L89.0969 295.482L101.905 498.181Z" fill="#596E81"/>
<path d="M52.1204 517.892C56.9503 525.061 67.8421 525.1 71.0686 519.924L102.962 306.305H47.9553L52.1204 517.892Z" fill="#596E81"/>
<path d="M129.574 191.516L150.986 231.622C147.485 245.57 139.918 252.681 130.356 256.431L122.221 202.182L129.574 191.516Z" fill="#64B82A"/>
<path d="M148.073 220.564C148.073 220.564 141.072 238.439 118.115 246.292" stroke="white" stroke-width="1.11538" stroke-miterlimit="10" stroke-linecap="round" stroke-linejoin="round"/>
<path d="M136.613 301.81V228.416C136.613 187.138 120.989 171.842 94.9626 181.336L84.2077 184.188C52.7838 201.106 36.8275 200.246 42.4396 233.476L47.9344 306.303C47.9539 343.792 138.628 345.882 136.613 301.81Z" fill="#64B82A"/>
<path d="M63.1677 246.038L49.6166 302.241L47.9935 307.711L46.0186 280.635L63.1677 246.038Z" fill="#2C1F9C"/>
<path d="M94.5921 180.066C94.5921 180.066 89.6253 183.036 87.4352 183.036C85.2451 183.036 67.7244 164.379 80.1806 145.606C88.061 133.729 109.18 144.688 109.18 144.688L94.5921 180.066Z" fill="#39444F"/>
<path d="M122.23 167.334C127.728 154.628 126.342 141.805 119.136 138.693C111.929 135.58 101.63 143.357 96.1318 156.063C90.6338 168.769 92.019 181.592 99.2257 184.705C106.432 187.817 116.732 180.04 122.23 167.334Z" fill="#FFC2B0"/>
<path d="M82.0959 164.284C82.0959 176.279 92.8313 183.702 101.905 178.467C110.978 173.231 118.33 159.264 118.33 147.288C118.33 135.294 110.978 129.804 101.905 135.04C92.8313 140.275 82.0959 152.289 82.0959 164.284Z" fill="#FFC2B0"/>
<path d="M91.6585 199.308L92.91 199.523C97.1337 200.246 101.162 197.374 101.885 193.155L105.933 169.38C106.657 165.16 103.782 161.136 99.5585 160.413L98.307 160.198C94.0832 159.476 90.055 162.347 89.3315 166.567L82.0964 188.837C81.3729 193.057 87.4543 198.585 91.6585 199.308Z" fill="#FFC2B0"/>
<path d="M80.1987 168.737C80.1987 171.648 82.5648 174.012 85.4784 174.012C88.392 174.012 90.7581 171.648 90.7581 168.737C90.7581 165.827 88.392 163.463 85.4784 163.463C82.5648 163.463 80.1987 165.807 80.1987 168.737Z" fill="#FFC2B0"/>
<path d="M110.919 144.689C110.919 144.689 108.768 172.527 80.199 163.462C80.199 163.462 65.9439 145.646 87.2191 131.112C105.972 118.297 119.875 139.063 119.875 139.063L110.919 144.689Z" fill="#39444F"/>
<path d="M125.116 157.817C125.116 157.817 122.535 148.401 110.92 144.67L119.876 139.024C119.876 139.044 129.223 140.939 125.116 157.817Z" fill="#39444F"/>
<path d="M72.9448 263.62C72.9448 265.887 74.8416 267.723 77.1099 267.625C82.9371 267.41 88.4514 264.5 88.4514 258.385V237.482C88.4514 236.134 86.7893 235.45 85.8703 236.427C82.4874 240.022 78.5765 241.663 74.2941 242.014C73.5315 242.073 72.9448 242.737 72.9448 243.499V263.62V263.62Z" stroke="#3D7915" stroke-width="1.11538" stroke-miterlimit="10"/>
<path d="M88.4514 239.591C85.792 245.119 79.9648 247.542 72.9448 248.753" stroke="#3D7915" stroke-width="1.11538" stroke-miterlimit="10"/>
<path d="M103.216 184.502C103.216 184.502 92.9891 184.717 86.321 174.93C86.321 174.93 92.7544 189.855 102.082 191.144L103.216 184.502Z" fill="#F09A82"/>
<path d="M142.558 298.412L75.7607 259.888L174.413 202.981L241.21 241.505L142.558 298.412Z" fill="white"/>
<path d="M206.786 241.675L200.942 238.304C200.898 238.274 200.856 238.244 200.808 238.217L171.933 221.562C170.751 220.879 168.665 220.966 167.302 221.755C165.935 222.541 165.787 223.743 166.969 224.426L172.813 227.797C172.857 227.827 172.899 227.857 172.946 227.884L201.822 244.539C203.004 245.222 205.089 245.135 206.453 244.346C207.819 243.56 207.968 242.358 206.786 241.675Z" fill="#478CC8"/>
<path d="M192.744 250.099L186.901 246.727C186.856 246.698 186.815 246.668 186.767 246.641L157.892 229.986C156.709 229.303 154.624 229.389 153.26 230.179C151.894 230.965 151.745 232.167 152.928 232.85L158.771 236.221C158.816 236.251 158.857 236.281 158.905 236.307L187.78 252.963C188.962 253.645 191.048 253.559 192.411 252.77C193.778 251.983 193.926 250.781 192.744 250.099Z" fill="#478CC8"/>
<path d="M178.708 258.518L172.865 255.146C172.82 255.117 172.779 255.087 172.731 255.06L143.856 238.405C142.673 237.722 140.588 237.808 139.224 238.598C137.858 239.384 137.709 240.586 138.892 241.269L144.735 244.64C144.78 244.67 144.821 244.7 144.869 244.726L173.744 261.382C174.926 262.064 177.012 261.978 178.375 261.189C179.739 260.402 179.888 259.2 178.708 258.518Z" fill="#478CC8"/>
<path d="M135.669 261.865C136.135 261.36 136.013 260.553 135.416 260.209L122.553 252.789C121.73 252.314 120.277 252.374 119.327 252.923C118.376 253.472 118.272 254.309 119.095 254.784L132.264 262.381C133.381 263.022 134.795 262.809 135.669 261.865Z" fill="#478CC8"/>
<mask id="mask0" mask-type="alpha" maskUnits="userSpaceOnUse" x="134" y="265" width="34" height="20">
<path fill-rule="evenodd" clip-rule="evenodd" d="M158.631 279.303L167.074 274.43L151.794 265.61L143.351 270.483L134.908 275.357L150.188 284.176L158.631 279.303Z" fill="white"/>
</mask>
<g mask="url(#mask0)">
<path fill-rule="evenodd" clip-rule="evenodd" d="M157.467 268.886C157.454 268.877 157.44 268.869 157.425 268.86L157.425 268.86L157.423 268.859L152.736 266.154C152.215 265.853 151.363 265.86 150.83 266.167C150.294 266.476 150.286 266.965 150.803 267.265L137.776 274.784C137.255 274.486 136.405 274.493 135.873 274.8C135.337 275.109 135.33 275.6 135.849 275.9L140.537 278.605L140.539 278.607L140.539 278.607C144.136 280.683 151.612 283.354 158.793 279.21C165.974 275.065 160.914 270.875 157.576 268.949L157.467 268.886ZM155.574 270.015C155.546 270.002 155.519 269.987 155.493 269.973L154.638 269.481L141.613 276.999L141.575 276.977C141.851 277.124 142.154 277.293 142.485 277.484C145.722 279.353 151.754 278.824 155.016 276.841C158.007 275.023 158.676 271.863 155.574 270.015Z" fill="#9DCD58"/>
</g>
<path fill-rule="evenodd" clip-rule="evenodd" d="M137.261 274.005L139.509 272.708C139.472 272.688 139.434 272.671 139.398 272.651C137.244 271.407 137.193 269.421 139.283 268.215C141.374 267.008 144.815 267.038 146.969 268.281C147.004 268.302 147.034 268.324 147.068 268.345L149.321 267.045C149.321 267.044 149.32 267.044 149.32 267.044C148.919 266.812 148.488 266.607 148.036 266.428L147.621 266.514C146.68 266.71 145.581 266.433 145.164 265.895L144.977 265.653C143.826 265.502 142.64 265.486 141.493 265.606L141.311 265.842C140.905 266.369 139.811 266.616 138.866 266.395L138.448 266.297C137.959 266.478 137.497 266.692 137.071 266.938C136.663 267.173 136.307 267.427 136.001 267.695L136.159 267.93C136.526 268.479 136.079 269.105 135.159 269.33L134.785 269.421C134.558 270.09 134.573 270.784 134.828 271.457L135.183 271.553C136.108 271.803 136.568 272.442 136.213 272.981L136.083 273.178C136.417 273.471 136.807 273.75 137.254 274.008C137.291 274.029 137.331 274.047 137.368 274.067L137.261 274.005ZM145.395 269.19C145.431 269.211 145.459 269.234 145.49 269.256L146.3 268.789C146.266 268.768 146.236 268.746 146.2 268.725C144.484 267.735 141.741 267.711 140.075 268.672C138.762 269.431 138.51 270.575 139.303 271.51L141.746 270.1L142.886 270.759L143.5 270.405C143.461 270.387 143.421 270.371 143.384 270.35C142.812 270.02 142.799 269.492 143.354 269.172C143.909 268.852 144.823 268.86 145.395 269.19Z" fill="#39444F"/>
<path d="M142.557 298.412V366.708L241.208 309.801C239.644 294.72 239.585 256.353 241.208 241.506L142.557 298.412Z" fill="#99C4EB"/>
<path d="M75.7595 259.889C78.4776 276.904 78.5754 315.349 75.7595 328.184L142.557 366.708V350.787V350.337V338.167V334.416V298.412L75.7595 259.889Z" fill="#E8F4FF"/>
<path d="M170.403 315.799C170.403 315.799 218.643 293.372 235.89 296.166C235.89 296.166 232.937 292.923 224.94 287.277L170.403 315.799Z" fill="#E1EAF4"/>
<path d="M47.9534 246.291C47.9534 246.291 28.3794 276.571 61.4654 323.886C70.5582 336.896 120.5 341.175 120.5 341.175L120.481 330.801C120.481 330.801 86.1235 327.93 77.6173 312.868C68.0161 295.872 74.8993 238.204 47.9534 246.291Z" fill="#FFC2B0"/>
<path d="M126.796 347.407L121.536 346.294C117.488 345.434 114.203 340.922 114.223 336.253C114.242 331.584 117.547 328.478 121.595 329.337L126.855 330.451C130.903 331.31 134.188 335.823 134.168 340.492C134.168 345.161 130.844 348.267 126.796 347.407Z" fill="#FFC2B0"/>
<path d="M68.5058 236.643L71.3608 286.009C70.6959 290.326 36.4562 290.463 36.8669 284.172C36.9451 283.059 31.8414 224.336 44.7277 207.359C55.2089 193.548 68.1734 213.63 68.5058 236.643Z" fill="#64B82A"/>
<path d="M70.5589 272.137C70.5589 272.137 54.9546 280.479 35.9868 271.18" stroke="#3D7915" stroke-width="1.02835" stroke-miterlimit="10" stroke-linecap="round" stroke-linejoin="round"/>
<path d="M77.8335 293.333L142.558 328.731V331.954L77.8335 293.333Z" fill="#99C4EB"/>
<g opacity="0.45">
<mask id="mask1" mask-type="alpha" maskUnits="userSpaceOnUse" x="291" y="346" width="44" height="104">
<path d="M329.263 368.259L291.087 346.218L296.498 427.905L334.674 449.946L329.263 368.259Z" fill="#4A4A4A"/>
</mask>
<g mask="url(#mask1)">
<path fill-rule="evenodd" clip-rule="evenodd" d="M331.844 407.217C334.843 408.949 337.11 407.538 336.881 404.082C336.652 400.626 334.011 396.381 331.011 394.65C328.012 392.918 325.745 394.329 325.974 397.785C326.203 401.241 328.844 405.485 331.844 407.217ZM333.53 432.666C344.982 439.278 353.546 433.948 352.672 420.753C351.798 407.557 341.819 391.522 330.366 384.91C318.913 378.298 310.35 383.627 311.224 396.823C312.098 410.018 322.077 426.053 333.53 432.666ZM341.766 450.112L342.208 448.856C343.573 445.716 347.538 446.193 351.46 449.968L352.865 451.383C356.495 450.76 359.518 448.879 361.953 446.054L361.304 444.169C359.67 439.297 361.246 435.372 364.687 435.848L366.008 436.007C366.367 433.494 366.473 431.138 366.265 427.996C366.098 425.483 365.659 422.812 365.24 420.455L363.835 419.04C360.166 415.108 358.217 409.451 359.289 405.839L359.731 404.583C356.985 398.768 353.463 393.108 349.437 387.762L347.591 387.603C344.15 387.127 339.642 382.409 338.008 377.537L337.358 375.652C335.135 373.764 332.66 372.033 330.206 370.616C328.024 369.356 325.864 368.411 323.976 367.623L323.283 369.036C321.917 372.176 317.679 371.542 314.03 367.924L312.352 366.351C308.722 366.975 305.699 368.856 303.516 371.523L304.186 373.723C305.82 378.595 304.244 382.52 300.803 382.044L299.23 382.042C298.851 384.24 298.765 386.91 298.932 389.424C299.098 391.937 299.538 394.608 299.977 397.279L301.675 399.166C305.345 403.098 307.294 408.755 306.221 412.367L306.053 413.78C309.071 419.753 312.593 425.413 316.325 430.287L317.647 430.446C321.088 430.921 325.597 435.64 327.231 440.511L327.88 442.397C330.103 444.285 332.578 446.016 335.032 447.433C337.466 448.536 339.626 449.481 341.766 450.112ZM338.861 430.002C345.238 431.267 349.395 426.717 348.854 418.549C348.147 407.867 340.222 395.133 330.951 389.78C321.68 384.427 314.879 388.659 315.587 399.342C316.149 407.825 321.242 417.413 327.953 423.705L326.933 408.31L338.113 414.765L339.133 430.16L338.861 430.002Z" fill="white"/>
</g>
</g>
<path opacity="0.8" fill-rule="evenodd" clip-rule="evenodd" d="M355.763 368.449C355.49 368.292 355.49 368.292 355.763 368.449C355.49 368.292 355.49 368.292 355.763 368.449L328.222 352.548C325.222 350.816 322.955 352.227 323.184 355.683C323.413 359.139 326.055 363.384 329.054 365.115L334.674 449.944C331.674 448.213 329.407 449.623 329.636 453.079C329.865 456.535 332.507 460.78 335.506 462.512L362.775 478.255C383.772 490.378 418.324 501.261 415.243 454.763C412.163 408.264 375.669 379.942 356.308 368.764L355.763 368.449ZM356.596 381.016C356.323 380.859 356.323 380.859 356.05 380.701L350.596 377.553L356.216 462.382L356.489 462.539C358.125 463.484 359.761 464.428 361.67 465.531C380.485 476.394 393.984 462.431 392.003 440.438C390.398 420.173 374.886 391.879 356.596 381.016Z" fill="white"/>
</svg>
